<svg width="115" height="33" viewBox="0 0 115 33" fill="none" xmlns="http://www.w3.org/2000/svg">
<path d="M41.6771 2C43.0971 2 43.9571 2.7 43.9571 4C43.9571 5.36 43.0471 6.08 41.6371 6.08H40.0171V8H39.3171V2H41.6771ZM43.2471 4.02C43.2471 3.09 42.6171 2.65 41.6571 2.65H40.0171V5.43H41.6571C42.6271 5.43 43.2471 5.02 43.2471 4.02ZM48.7616 5.92C48.7616 7.26 47.8016 8.1 46.6416 8.1C45.4716 8.1 44.5316 7.26 44.5316 5.92C44.5316 4.58 45.4716 3.7 46.6416 3.7C47.8016 3.7 48.7616 4.58 48.7616 5.92ZM46.6416 7.54C47.4116 7.54 48.0716 6.93 48.0716 5.91C48.0716 4.9 47.4116 4.26 46.6416 4.26C45.8716 4.26 45.2116 4.9 45.2116 5.91C45.2116 6.93 45.8716 7.54 46.6416 7.54ZM49.2432 3.8H49.9632L50.9632 6.91C50.9932 7 51.0232 7.12 51.0232 7.19H51.1032C51.1032 7.12 51.1532 7 51.1732 6.91L52.0632 3.8H52.6432L53.5332 6.91C53.5732 7 53.5932 7.12 53.5932 7.19H53.6732C53.6732 7.12 53.7032 7 53.7332 6.91L54.7532 3.8H55.4232L53.8732 8H53.2732L52.4032 4.9C52.3732 4.82 52.3532 4.73 52.3532 4.63H52.3132C52.3132 4.73 52.2832 4.82 52.2532 4.9L51.3832 8H50.7932L49.2432 3.8ZM59.5286 7.62C59.5286 7.62 59.0886 8.11 58.0386 8.11C56.7286 8.11 55.9186 7.22 55.9186 5.91C55.9186 4.64 56.6886 3.7 57.8886 3.7C59.0986 3.7 59.7386 4.62 59.7386 5.79V5.96H56.6086C56.6286 6.99 57.2586 7.52 58.0786 7.52C58.8486 7.52 59.2686 7.12 59.2686 7.12L59.5286 7.62ZM57.8786 4.29C57.2086 4.29 56.7786 4.65 56.6486 5.4H59.0286C58.9286 4.67 58.5386 4.29 57.8786 4.29ZM62.8089 4.35H62.5789C61.9689 4.35 61.4489 4.85 61.4489 5.52V8H60.7589V3.8H61.2489L61.3089 4.54H61.3489C61.5489 4.06 62.0189 3.79 62.5689 3.79H62.8089V4.35ZM66.8235 7.62C66.8235 7.62 66.3835 8.11 65.3335 8.11C64.0235 8.11 63.2135 7.22 63.2135 5.91C63.2135 4.64 63.9835 3.7 65.1835 3.7C66.3935 3.7 67.0335 4.62 67.0335 5.79V5.96H63.9035C63.9235 6.99 64.5535 7.52 65.3735 7.52C66.1435 7.52 66.5635 7.12 66.5635 7.12L66.8235 7.62ZM65.1735 4.29C64.5035 4.29 64.0735 4.65 63.9435 5.4H66.3235C66.2235 4.67 65.8335 4.29 65.1735 4.29ZM71.2638 4.36V1.95H71.9538V8H71.4738L71.3738 7.33H71.3438C71.3438 7.33 70.9538 8.1 69.7638 8.1C68.6538 8.1 67.7838 7.23 67.7838 5.9C67.7838 4.59 68.6438 3.7 69.7438 3.7C70.8838 3.7 71.2338 4.36 71.2338 4.36H71.2638ZM71.3138 5.9C71.3138 4.88 70.6638 4.28 69.8838 4.28C69.0938 4.28 68.4838 4.94 68.4838 5.9C68.4838 6.85 69.0938 7.52 69.8838 7.52C70.6638 7.52 71.3138 6.92 71.3138 5.9ZM75.5343 1.95H76.2243V4.43H76.2543C76.2543 4.43 76.5743 3.7 77.7543 3.7C78.8343 3.7 79.6943 4.59 79.6943 5.9C79.6943 7.23 78.8343 8.1 77.7343 8.1C76.5043 8.1 76.1443 7.27 76.1443 7.27H76.1143L76.0343 8H75.5343V1.95ZM76.1843 5.9C76.1843 6.92 76.8343 7.52 77.6043 7.52C78.3943 7.52 78.9943 6.85 78.9943 5.9C78.9943 4.94 78.3943 4.28 77.6043 4.28C76.8343 4.28 76.1843 4.88 76.1843 5.9ZM81.8317 9.56H81.1117L81.9317 7.8L80.1017 3.8H80.8617L82.1817 6.91C82.2117 7 82.2517 7.12 82.2517 7.19H82.2917C82.2917 7.12 82.3217 7 82.3517 6.91L83.6617 3.8H84.3717L81.8317 9.56Z" fill="#666666"/>
<path d="M40.397 14.0004L37.3335 16.9375L39.1187 18.6514L42.1823 15.7143L40.397 14.0004Z" fill="#666666"/>
<path d="M31.4633 24.417L40.4094 32.9998L42.1945 31.2871L34.0802 23.5023L35.9161 21.741L34.1208 20.0283L31.4532 22.5876C30.9258 23.0936 30.9258 23.911 31.4532 24.417H31.4633Z" fill="#666666"/>
<path d="M31.0674 31.2874L32.8525 33.0001L35.9258 30.0711L34.1407 28.3584L31.0674 31.2874Z" fill="#666666"/>
<path d="M39.1715 23.5023L37.3357 25.2637L39.1208 26.9861L41.7884 24.4268C42.3158 23.9208 42.3158 23.1034 41.7884 22.5974L32.8525 14.0049L31.0674 15.7175L39.1817 23.5023H39.1715Z" fill="#666666"/>
<path d="M78.9218 22.0813C77.0859 21.6629 75.9702 21.3418 75.9702 20.2616C75.9702 19.2788 77.238 18.7728 78.516 18.7728C79.4492 18.7728 80.6663 19.0161 81.7719 20.0768C81.8936 20.2033 81.9748 20.2908 81.9748 20.2908L83.5368 19.1037C83.6078 19.0453 83.6483 18.9674 83.6585 18.8798C83.6585 18.7923 83.6382 18.7047 83.5773 18.6463C82.8268 17.9262 80.7475 16.6709 78.6479 16.6709C74.9457 16.6709 73.4243 18.6268 73.4243 20.2616C73.4243 23.1031 76.102 23.687 78.2523 24.1443L78.516 24.2027C81.0315 24.7476 81.7516 25.205 81.7516 26.2462C81.7516 27.8518 80.0882 28.0854 79.0942 28.0854C77.0555 28.0854 76.0006 27.3555 75.392 26.5868C75.2805 26.4506 75.1993 26.3338 75.1993 26.3338L73.5663 27.521C73.4953 27.5696 73.4547 27.6475 73.4345 27.7351C73.4243 27.8226 73.4446 27.9005 73.4953 27.9686C74.7125 29.4964 76.7512 30.1873 78.9623 30.1873C82.3399 30.1873 84.2873 28.7276 84.2873 26.1781C84.2873 23.2685 81.7922 22.7041 78.9116 22.0619L78.9218 22.0813Z" fill="#666666"/>
<path d="M108.874 16.6904C104.634 16.6904 102.748 18.7729 102.748 23.4535C102.748 28.1341 104.634 30.2068 108.874 30.2068C113.114 30.2068 115 28.1244 115 23.4535C115 18.7826 113.114 16.6904 108.874 16.6904ZM108.874 28.1146C107.028 28.1146 105.314 27.5502 105.314 23.4632C105.314 19.3762 107.028 18.7923 108.874 18.7923C110.72 18.7923 112.434 19.3567 112.434 23.4632C112.434 27.5697 110.72 28.1146 108.874 28.1146Z" fill="#666666"/>
<path d="M58.6056 20.5731C58.6056 18.0235 56.8306 16.6807 53.4733 16.6807C51.3433 16.6807 49.8828 17.2061 48.412 18.3252C48.27 18.4322 48.2497 18.6269 48.3613 18.7631L49.4365 20.0573C49.4872 20.1157 49.6393 20.3006 49.6393 20.3006C49.6393 20.3006 49.832 20.1546 49.8929 20.106C51.1303 19.1621 51.9722 18.7728 53.3415 18.7728C55.1368 18.7728 56.0496 19.3762 56.0496 20.5633V21.118C56.0496 21.118 54.7919 21.3613 52.5199 21.9062C48.4526 22.889 47.2456 24.3584 47.2456 26.2365C47.2456 28.3579 48.8989 30.1387 52.1649 30.1387C53.8486 30.1387 55.1773 29.6716 56.4046 29.3699L56.4756 30.0122H58.2608C58.3521 30.0122 58.4433 29.9732 58.5042 29.9051C58.5651 29.837 58.5955 29.7494 58.5853 29.6618V20.5731H58.6056ZM56.1003 23.3075V27.3945C56.1003 27.3945 55.0049 27.6962 54.3253 27.8616C53.808 27.9881 53.169 28.1341 52.3982 28.1341C50.3696 28.1341 49.8016 27.1415 49.8016 26.363C49.8016 25.4386 50.1972 24.7185 53.0879 24.047C54.8122 23.6481 55.6439 23.4243 56.1003 23.3172V23.3075Z" fill="#666666"/>
<path d="M71.1015 16.8564H68.9005V27.3756C68.9005 27.3756 67.9978 27.6578 67.0342 27.9108C66.6995 27.9984 66.3141 28.0471 65.8779 28.0471C63.4335 28.0471 63.1495 26.8696 63.1495 25.9938V16.8564H60.9485C60.7659 16.8564 60.6138 17.0024 60.6138 17.1775V26.2371C60.6138 28.7282 62.3482 30.1587 65.3809 30.1587C66.0808 30.1587 66.6792 30.0614 67.1965 29.9252C68.0992 29.7013 69.1845 29.3997 69.1845 29.3997L69.2555 30.0517H71.0812C71.2638 30.0517 71.4159 29.9057 71.4159 29.7403V17.1678C71.4159 16.9926 71.2638 16.8467 71.0812 16.8467L71.1015 16.8564Z" fill="#666666"/>
<path d="M92.1683 27.5021C91.3771 27.8719 90.6975 28.0373 89.9571 28.0373C88.9834 28.0373 88.8008 27.7357 88.8008 27.1907V18.9096H92.4117V17.1678C92.4117 16.9926 92.2595 16.8466 92.077 16.8466H88.7095L88.3951 14.0928L86.5592 14.482C86.4071 14.5112 86.3057 14.6474 86.3057 14.7934V27.5021C86.3057 29.1758 87.5228 30.1392 89.6325 30.1392C90.9308 30.1392 91.9451 29.75 92.645 29.458V27.7746C92.645 27.541 92.3914 27.3951 92.1683 27.4924V27.5021Z" fill="#666666"/>
<path d="M102.534 17.1576C102.24 16.8948 101.53 16.7002 100.82 16.7002C98.9337 16.7002 97.6862 17.3619 96.9863 18.1501L96.8342 16.8462H94.9983C94.8157 16.8462 94.6636 16.9921 94.6636 17.1673V29.7203C94.6636 29.8954 94.8157 30.0317 94.9983 30.0317H97.1892V21.6533C97.1993 19.999 98.4976 18.9286 100.496 18.9286C100.82 18.9286 101.104 18.987 101.358 19.0648C101.358 19.0648 101.398 19.0162 101.459 18.9383L102.565 17.5954C102.676 17.4689 102.656 17.2841 102.534 17.1673V17.1576Z" fill="#666666"/>
<path d="M23.5414 22.1984C24.6875 22.1984 26.0061 21.887 26.0061 19.4835C26.0061 17.0799 24.6875 16.7588 23.5414 16.7588C22.3952 16.7588 21.0767 17.0702 21.0767 19.4835C21.0767 21.8968 22.3952 22.1984 23.5414 22.1984ZM22.1011 19.4835C22.1011 17.8292 22.7908 17.6054 23.5414 17.6054C24.292 17.6054 24.9817 17.8292 24.9817 19.4835C24.9817 21.1377 24.292 21.3616 23.5414 21.3616C22.7908 21.3616 22.1011 21.1377 22.1011 19.4835Z" fill="#666666"/>
<path d="M15.9854 19.4639C15.9854 17.6247 16.7461 16.7295 18.2979 16.7295C19.2919 16.7295 19.9106 17.0409 20.4279 17.7902C20.4685 17.8388 20.4584 17.9167 20.4076 17.9556L19.9106 18.3254L19.7991 18.4032L19.7179 18.3059L19.6875 18.267C19.4542 17.9653 19.2311 17.5761 18.2574 17.5761C17.8821 17.5761 17.6184 17.6637 17.4256 17.8486C17.1416 18.1308 16.9996 18.6465 17.0098 19.4347V19.5028C17.0098 20.291 17.1315 20.8165 17.4256 21.089C17.6184 21.2739 17.8821 21.3615 18.2574 21.3615C19.2311 21.3615 19.4542 20.9625 19.6875 20.6706L19.7179 20.6316L19.7991 20.5343C19.7991 20.5343 19.8802 20.5927 19.9106 20.6122L20.4076 20.9819C20.4076 20.9819 20.4685 21.0987 20.4279 21.1474C19.9106 21.8967 19.2919 22.2081 18.2979 22.2081C16.7359 22.2081 15.9854 21.3128 15.9854 19.4736V19.4639Z" fill="#666666"/>
<path d="M9.8386 18.3157C9.8386 17.294 9.1286 16.749 7.77959 16.749C6.92759 16.749 6.33931 16.9631 5.75102 17.4107C5.69016 17.4497 5.68002 17.5275 5.73073 17.5859L6.15673 18.1114L6.23788 18.2087L6.33931 18.1308C6.83631 17.7513 7.17102 17.5956 7.71874 17.5956C8.43888 17.5956 8.80402 17.8389 8.80402 18.3157V18.5395C8.80402 18.5395 8.29688 18.6368 7.38402 18.8607C5.75102 19.2596 5.26416 19.8435 5.26416 20.6025C5.26416 21.4588 5.92345 22.1789 7.24202 22.1789C7.92159 22.1789 8.44902 21.994 8.94602 21.8675L8.97645 22.1303H9.6966C9.6966 22.1303 9.7676 22.1108 9.79803 22.0913C9.81831 22.0622 9.8386 22.033 9.82845 21.994V18.3254L9.8386 18.3157ZM8.83445 19.4153V21.0599C8.83445 21.0599 8.39831 21.1766 8.12445 21.2448C7.91145 21.2934 7.65788 21.3518 7.35359 21.3518C6.54216 21.3518 6.30888 20.9528 6.30888 20.6414C6.30888 20.2716 6.47116 19.9797 7.62745 19.7073C8.31717 19.5418 8.65188 19.4542 8.83445 19.4153Z" fill="#666666"/>
<path d="M10.9341 22.1303H11.8267V17.8876C11.8267 17.8876 12.1918 17.7708 12.5874 17.6735C12.7294 17.6346 12.8815 17.6152 13.054 17.6152C14.048 17.6152 14.1595 18.092 14.1595 18.4423V22.1206H15.0521C15.1231 22.1206 15.184 22.0622 15.184 21.9941V18.345C15.184 17.3427 14.474 16.7686 13.2467 16.7686C12.9627 16.7686 12.7193 16.8075 12.5063 16.8659C12.1411 16.9534 11.705 17.0799 11.705 17.0799L11.6745 16.8172H10.9341C10.8631 16.8172 10.8022 16.8756 10.8022 16.9437V22.0038C10.8022 22.072 10.8631 22.1303 10.9341 22.1303Z" fill="#666666"/>
<path d="M21.7464 24.7675C20.1438 24.7675 19.3628 25.6822 19.3628 27.5603C19.3628 29.4384 20.0829 30.1974 21.7058 30.2071C22.6795 30.2071 23.2881 29.886 23.8054 29.1464C23.8459 29.0978 23.8358 29.0199 23.7851 28.981L23.2881 28.6112L23.1765 28.5236C23.1765 28.5236 23.1258 28.6015 23.1055 28.621L23.0751 28.6599C22.8519 28.9518 22.6389 29.3216 21.7464 29.3508C20.9248 29.3508 20.4278 29.0783 20.3771 27.7841H23.9879C24.0589 27.7841 24.1198 27.7257 24.1198 27.6576V27.3851C24.1198 25.6335 23.3185 24.7383 21.7464 24.7383V24.7675ZM20.3872 26.9959C20.4684 26.0325 20.8944 25.5946 21.7464 25.5946C22.5984 25.5946 23.0244 26.0325 23.1157 26.9959H20.3872Z" fill="#666666"/>
<path d="M18.4195 23.4248H17.5371V25.1666C17.1415 24.9039 16.6242 24.7579 16.0562 24.7579C15.1231 24.7579 13.8755 25.0401 13.8755 27.4729C13.8755 29.9056 15.0926 30.1781 16.0055 30.1781C16.6952 30.1781 17.0096 30.0419 17.6486 29.8667L17.6791 30.1294H18.4094C18.4094 30.1294 18.4804 30.1197 18.5006 30.0905C18.5209 30.0613 18.5412 30.0321 18.5311 29.9932V23.5415C18.5311 23.4734 18.4702 23.415 18.3992 23.415L18.4195 23.4248ZM17.5574 29.059C17.5574 29.059 16.8474 29.3412 16.1982 29.3412C15.5491 29.3412 14.9202 29.1953 14.9202 27.4729C14.9202 25.7505 15.5389 25.5948 16.1779 25.5948C16.7764 25.5948 17.2632 25.7797 17.5675 26.1203V29.059H17.5574Z" fill="#666666"/>
<path d="M0 15.5425V21.9942C0 21.9942 0.0101429 22.0623 0.0304286 22.0915C0.0507144 22.1207 0.0912859 22.1304 0.121715 22.1304H0.862145L0.892573 21.8677C1.53157 22.0428 1.846 22.1791 2.53572 22.1791C3.44858 22.1791 4.66572 21.8969 4.66572 19.4738C4.66572 17.0508 3.41815 16.7589 2.48501 16.7589C1.917 16.7589 1.39972 16.9049 1.00414 17.1676V15.416H0.131857C0.0608573 15.416 0 15.4744 0 15.5425ZM0.994002 18.1115C1.28815 17.7709 1.775 17.586 2.38358 17.586C3.02258 17.586 3.64129 17.732 3.64129 19.4641C3.64129 21.1962 3.01243 21.3325 2.36329 21.3325C1.71415 21.3325 1.00414 21.0503 1.00414 21.0503V18.1115H0.994002Z" fill="#666666"/>
<path d="M26.0065 30.149H25.124C25.053 30.149 24.9922 30.0906 24.9922 30.0225V23.4443H25.8746C25.9456 23.4443 26.0065 23.5027 26.0065 23.5708V30.149Z" fill="#666666"/>
</svg>
